<svg viewBox="0 0 12 21" fill="none" xmlns="http://www.w3.org/2000/svg">
<path d="M0.5 2.72222C0.5 1.49492 1.50808 0.5 2.75161 0.5C3.99517 0.5 5.00321 1.49492 5.00321 2.72222C5.00321 3.54476 4.55042 4.26292 3.87741 4.64716V12.7662H5.89429C7.13785 12.7662 8.14589 11.7712 8.14589 10.544V9.14867C7.46005 8.76789 6.99679 8.04263 6.99679 7.21061C6.99679 5.98331 8.00483 4.98839 9.24839 4.98839C10.4918 4.98839 11.5 5.98331 11.5 7.21061C11.5 8.02359 11.0576 8.73456 10.3975 9.122V10.544C10.3975 12.9986 8.3813 14.9884 5.89429 14.9884H3.87741V16.3529C4.55042 16.7371 5.00321 17.4552 5.00321 18.2778C5.00321 19.5051 3.99517 20.5 2.75161 20.5C1.50808 20.5 0.5 19.5051 0.5 18.2778C0.5 17.4552 0.952798 16.7371 1.6258 16.3529V4.64716C0.952798 4.26292 0.5 3.54476 0.5 2.72222Z" fill="black"/>
</svg>
